<svg fill="none" viewBox="0 0 24 24" version="1.1">
<g id="surface1" stroke-width="0">
<path style=" stroke:none;fill-rule:nonzero;fill-opacity:1;" d="M 20.578125 2.421875 L 18.160156 2.421875 L 18.160156 1.210938 C 18.160156 0.542969 17.617188 0 16.949219 0 C 16.28125 0 15.738281 0.542969 15.738281 1.210938 L 15.738281 2.421875 L 8.476562 2.421875 L 8.476562 1.210938 C 8.476562 0.542969 7.933594 0 7.265625 0 C 6.597656 0 6.054688 0.542969 6.054688 1.210938 L 6.054688 2.421875 L 3.632812 2.421875 C 1.625 2.421875 0 4.046875 0 6.050781 L 0 20.578125 C 0 22.585938 1.625 24.210938 3.632812 24.210938 L 20.582031 24.210938 C 22.585938 24.210938 24.214844 22.585938 24.214844 20.578125 L 24.214844 6.050781 C 24.214844 4.046875 22.585938 2.421875 20.578125 2.421875 Z M 21.789062 20.578125 C 21.789062 21.25 21.25 21.789062 20.578125 21.789062 L 3.632812 21.789062 C 2.964844 21.789062 2.421875 21.25 2.421875 20.578125 L 2.421875 12.105469 L 21.789062 12.105469 Z M 21.789062 9.683594 L 2.421875 9.683594 L 2.421875 6.050781 C 2.421875 5.382812 2.964844 4.84375 3.632812 4.84375 L 6.050781 4.84375 L 6.050781 6.050781 C 6.050781 6.722656 6.59375 7.261719 7.261719 7.261719 C 7.929688 7.261719 8.472656 6.722656 8.472656 6.050781 L 8.472656 4.84375 L 15.738281 4.84375 L 15.738281 6.050781 C 15.738281 6.722656 16.277344 7.261719 16.945312 7.261719 C 17.617188 7.261719 18.15625 6.722656 18.15625 6.050781 L 18.15625 4.84375 L 20.578125 4.84375 C 21.25 4.84375 21.789062 5.382812 21.789062 6.050781 Z M 21.789062 9.683594 "/>
</g>
</svg>
